<svg width="1885.5308px" height="1563.3658px" viewBox="0 0 1885.5308 1563.3658" version="1.1" xmlns:xlink="http://www.w3.org/1999/xlink" xmlns="http://www.w3.org/2000/svg">
  <path d="M0 1552.14C0 1552.14 232.001 1566.14 496.002 1552.14C760.002 1538.14 858.003 1534.14 1008 1528.14C1158 1522.14 1167 1555.64 1167 1555.64C1167 1555.64 1185.08 1420.51 1182.5 1409.14C1179.92 1397.77 1213.4 1281.24 1232.5 1244.14C1251.61 1207.04 1388.15 853.508 1405 833.141C1421.86 812.773 1442 722.641 1442 722.641L1445 713.141C1445 713.141 1291.74 725.074 1282 726.141C1272.26 727.207 1111.34 738.475 1097.5 734.141C1083.66 729.807 811.568 741.522 791.002 740.14C770.435 738.759 596.501 740.14 596.501 740.14L588.001 740.14L596.501 698.641C596.501 698.641 655.008 584.602 658.001 562.64C660.995 540.679 685.888 488.321 696.002 475.14C706.115 461.959 772.808 328.321 782.502 319.14C792.195 309.959 896.408 203.321 919.502 192.64C942.595 181.958 983.889 153.121 1001 149.14C1018.12 145.158 1098.93 125.601 1107 125.14C1115.08 124.678 1219.05 116.721 1232.5 118.14C1245.95 119.558 1386.05 115.761 1400 118.14C1413.95 120.518 1531.77 109.441 1541.5 111.14C1551.23 112.838 1680.5 106.14 1680.5 106.14C1680.5 106.14 1817.49 48.1608 1829 41.1395C1840.51 34.1181 1836.65 37.3208 1844.5 33.6395C1852.35 29.9582 1879.21 1.08075 1880.5 0.639435C1881.79 0.19812 1840 0.639435 1840 0.639435C1840 0.639435 1472.73 -0.799286 1445 0.639404C1417.27 2.07813 1062.73 12.2007 1044.5 17.1394C1026.27 22.0781 946.927 17.2006 929 22.1394C911.073 27.0782 841.927 26.4006 835.5 27.1394C829.073 27.8782 791.93 25.2006 782.502 22.1394C773.073 19.0782 712.227 2.00058 709.5 0.639404C706.773 -0.721741 707.5 13.6394 707.5 13.6394C707.5 13.6394 699.461 58.374 699 65.6394C698.539 72.9048 692.907 149.163 692.5 156.639C692.093 164.116 671.469 242.515 668.5 248.139C665.531 253.764 610.235 381.726 608 384.639C605.765 387.553 572.516 483.382 570 486.639C567.484 489.897 501 650.046 498.5 654.639C496 659.233 419.5 824.639 419.5 824.639C419.5 824.639 512.875 821.765 518.5 822.139C524.125 822.514 624.641 818.062 632 818.139C639.359 818.217 841.75 817.671 847 818.139C852.25 818.608 988.899 813.554 994.5 813.639C1000.1 813.725 1081.13 810.702 1087 811.139C1092.87 811.577 1178.77 817.476 1182.5 818.139C1186.23 818.803 1293.84 812.521 1295 813.639C1296.16 814.757 1295 813.639 1295 813.639L1282 844.639C1282 844.639 1201.09 1049.27 1195 1055.14C1188.91 1061.01 1103.1 1225.27 1097.5 1230.14C1091.91 1235.01 974.089 1351.27 965 1356.14C955.911 1361.01 893.09 1398.28 880 1403.14C866.911 1408.01 776.089 1428.27 765 1428.14C753.911 1428.01 603.092 1437.27 588.001 1437.14C572.911 1437.01 213.089 1443.27 196 1448.14C178.911 1453.01 55.0895 1504.27 46 1511.14C36.9105 1518.01 0 1552.14 0 1552.14Z" id="Vector" fill="none" fill-rule="evenodd" stroke="#000000" stroke-width="5" />
  <path d="M1020.43 1190C1020.43 1190 965.001 1228.69 952.429 1230C939.857 1231.31 874.646 1242.97 866.929 1243C859.212 1243.03 760.374 1248.45 746.429 1247C732.483 1245.55 655.341 1251.33 641.429 1251C627.517 1250.67 498.032 1247.33 478.929 1247C459.826 1246.67 374.519 1246.05 358.929 1247C343.339 1247.95 258.365 1257.37 253.429 1262C248.492 1266.63 287.722 1215.53 292.928 1205.5C298.135 1195.47 316 1175.3 319.929 1158.5C323.857 1141.7 367.598 994.988 369.929 984.5C372.26 974.012 400.429 887 400.429 887L470.929 881C470.929 881 446.233 964.266 443.429 984.5C440.625 1004.73 451.953 1030.84 454.929 1041C457.905 1051.16 481.553 1099.04 492.929 1113.5C504.305 1127.96 514.353 1142.44 524.929 1153.5C535.505 1164.56 565.553 1168.84 572.929 1171C580.305 1173.16 719.953 1174.04 726.929 1175C733.905 1175.96 898.153 1176.04 906.429 1177C914.705 1177.96 1020.43 1190 1020.43 1190Z" id="Vector-3" fill="none" fill-rule="evenodd" stroke="#000000" stroke-width="5" />
  <path d="M844 346C844 346 899.428 307.309 912 306C924.572 304.692 989.783 293.028 997.5 293C1005.22 292.972 1104.05 287.549 1118 289C1131.95 290.451 1209.09 284.67 1223 285C1236.91 285.331 1366.4 288.67 1385.5 289C1404.6 289.331 1489.91 289.95 1505.5 289C1521.09 288.05 1606.06 278.63 1611 274C1615.94 269.37 1576.71 320.466 1571.5 330.5C1566.29 340.534 1548.43 360.703 1544.5 377.5C1540.57 394.297 1496.83 541.012 1494.5 551.5C1492.17 561.988 1464 649 1464 649L1393.5 655C1393.5 655 1418.2 571.734 1421 551.5C1423.8 531.266 1412.48 505.157 1409.5 495C1406.52 484.843 1382.88 436.957 1371.5 422.5C1360.12 408.043 1350.08 393.557 1339.5 382.5C1328.92 371.443 1298.88 367.157 1291.5 365C1284.12 362.843 1144.48 361.957 1137.5 361C1130.52 360.043 966.276 359.957 958 359C949.724 358.043 844 346 844 346Z" id="Vector-2" fill="none" fill-rule="evenodd" stroke="#000000" stroke-width="5" />
</svg>